<svg xmlns="http://www.w3.org/2000/svg"  viewBox="0 0 48 48" width="50px" height="50px"><path d="M37.62 9.38L34.7 12.3c-1.47 1.47-3.7 1.75-5.58.85C27.57 12.41 25.84 12 24 12c-3.96 0-7.47 1.91-9.65 4.87l-6.44-4.73C11.53 7.2 17.39 4 24 4 29.27 4 34.05 6.05 37.62 9.38zM35 40.7c-3.16 2.09-6.93 3.3-11 3.3-6.7 0-12.62-3.29-16.23-8.34l6.33-4.88C16.26 33.93 19.88 36 24 36c1.57 0 3.06-.3 4.43-.86L35 40.7zM12 24c0 1.43.25 2.79.71 4.06L6.2 33.08v.03C4.79 30.38 4 27.28 4 24c0-3.36.83-6.53 2.31-9.31l6.56 4.81C12.31 20.89 12 22.41 12 24zM44 24c0 5.88-2.55 11.18-6.59 14.83 0-.01 0-.01 0-.02l-6.19-5.24c1.86-1.4 3.29-3.33 4.08-5.57H28c-2.209 0-4-1.791-4-4v-4h19.61C43.86 21.27 44 22.66 44 24z"/></svg>